# xmcd CD database file
#
# Track frame offsets:
#	150
#	70625
#	91068
#	125709
#	151494
#	183263
#
# Disc length: 2988 seconds
#
# Revision: 0
# Processed by: cddbd v1.5.1PL0 Copyright (c) Steve Scherf et al.
# Submitted via: CDex 1.51
#
DISCID=450baa06
DTITLE=Hellborg, Lane, Sipe - At the Iron Horse
DYEAR=1997
DGENRE=Jazz
TTITLE0=unknown
TTITLE1=stellar rays (aka time is the enemy)    hellborg/lane
TTITLE2=unknown (Blues Jam)
TTITLE3=unknown
TTITLE4=teen town/black market    jaco pastorius // joe zawinul
TTITLE5=rice with the angels        hellborg/lane/baker
EXTD=YEAR: 1997
EXTT0=
EXTT1=
EXTT2=
EXTT3=
EXTT4=
EXTT5=
PLAYORDER=
